HIERARCHY
ROOT Hips
{
	OFFSET -14.64140 90.27770 -84.91600
	CHANNELS 6 Xposition Yposition Zposition Zrotation Xrotation Yrotation
	JOINT Spine
	{
		OFFSET 0.00000 13.20850 -1.60436
		CHANNELS 3 Zrotation Xrotation Yrotation
		JOINT Spine1
		{
			OFFSET 0.00000 8.61716 0.00000
			CHANNELS 3 Zrotation Xrotation Yrotation
			JOINT Spine2
			{
				OFFSET 0.00000 8.61717 0.00000
				CHANNELS 3 Zrotation Xrotation Yrotation
				JOINT Spine3
				{
					OFFSET 0.00000 8.61717 0.00000
					CHANNELS 3 Zrotation Xrotation Yrotation
					JOINT Neck
					{
						OFFSET 0.00000 11.07920 1.10792
						CHANNELS 3 Zrotation Xrotation Yrotation
						JOINT Neck1
						{
							OFFSET 0.00000 7.08032 0.00000
							CHANNELS 3 Zrotation Xrotation Yrotation
							JOINT Head
							{
								OFFSET 0.00000 7.08031 0.00000
								CHANNELS 3 Zrotation Xrotation Yrotation
								End site
								{
									OFFSET 0.00000 0.00000 0.00000
								}
							}
						}
					}
					JOINT RightShoulder
					{
						OFFSET -0.01000 7.91373 5.19711
						CHANNELS 3 Zrotation Xrotation Yrotation
						JOINT RightArm
						{
							OFFSET -18.41580 0.00000 0.00000
							CHANNELS 3 Zrotation Xrotation Yrotation
							JOINT RightForeArm
							{
								OFFSET -29.11090 0.00000 0.00000
								CHANNELS 3 Zrotation Xrotation Yrotation
								JOINT RightHand
								{
									OFFSET -24.65040 0.00000 0.00000
									CHANNELS 3 Zrotation Xrotation Yrotation
									JOINT RightHandThumb1
									{
										OFFSET -5.35114 -0.85590 3.97906
										CHANNELS 3 Zrotation Xrotation Yrotation
										JOINT RightHandThumb2
										{
											OFFSET -4.52789 0.00000 0.00000
											CHANNELS 3 Zrotation Xrotation Yrotation
											JOINT RightHandThumb3
											{
												OFFSET -2.46976 0.00000 0.00000
												CHANNELS 3 Zrotation Xrotation Yrotation
												End site
												{
													OFFSET 0.00000 0.00000 0.00000
												}
											}
										}
									}
									JOINT RightHandIndex1
									{
										OFFSET -14.26970 0.00000 2.88139
										CHANNELS 3 Zrotation Xrotation Yrotation
										JOINT RightHandIndex2
										{
											OFFSET -5.48836 0.00000 0.00000
											CHANNELS 3 Zrotation Xrotation Yrotation
											JOINT RightHandIndex3
											{
												OFFSET -3.01859 0.00000 0.00000
												CHANNELS 3 Zrotation Xrotation Yrotation
												End site
												{
													OFFSET 0.00000 0.00000 0.00000
												}
											}
										}
									}
									JOINT RightHandMiddle1
									{
										OFFSET -14.26970 0.00000 -0.09147
										CHANNELS 3 Zrotation Xrotation Yrotation
										JOINT RightHandMiddle2
										{
											OFFSET -6.17441 0.00000 0.00000
											CHANNELS 3 Zrotation Xrotation Yrotation
											JOINT RightHandMiddle3
											{
												OFFSET -3.56743 0.00000 0.00000
												CHANNELS 3 Zrotation Xrotation Yrotation
												End site
												{
													OFFSET 0.00000 0.00000 0.00000
												}
											}
										}
									}
									JOINT RightHandRing1
									{
										OFFSET -12.69180 0.00000 -3.06433
										CHANNELS 3 Zrotation Xrotation Yrotation
										JOINT RightHandRing2
										{
											OFFSET -5.62556 0.00000 0.00000
											CHANNELS 3 Zrotation Xrotation Yrotation
											JOINT RightHandRing3
											{
												OFFSET -3.56744 0.00000 0.00000
												CHANNELS 3 Zrotation Xrotation Yrotation
												End site
												{
													OFFSET 0.00000 0.00000 0.00000
												}
											}
										}
									}
									JOINT RightHandPinky1
									{
										OFFSET -11.11390 0.00000 -6.03719
										CHANNELS 3 Zrotation Xrotation Yrotation
										JOINT RightHandPinky2
										{
											OFFSET -4.52789 0.00000 0.00000
											CHANNELS 3 Zrotation Xrotation Yrotation
											JOINT RightHandPinky3
											{
												OFFSET -2.46976 0.00000 0.00000
												CHANNELS 3 Zrotation Xrotation Yrotation
												End site
												{
													OFFSET 0.00000 0.00000 0.00000
												}
											}
										}
									}
								}
							}
						}
					}
					JOINT LeftShoulder
					{
						OFFSET 0.01000 7.91373 5.19711
						CHANNELS 3 Zrotation Xrotation Yrotation
						JOINT LeftArm
						{
							OFFSET 18.41580 0.00000 0.00000
							CHANNELS 3 Zrotation Xrotation Yrotation
							JOINT LeftForeArm
							{
								OFFSET 29.11090 0.00000 0.00000
								CHANNELS 3 Zrotation Xrotation Yrotation
								JOINT LeftHand
								{
									OFFSET 24.65040 0.00000 0.00000
									CHANNELS 3 Zrotation Xrotation Yrotation
									JOINT LeftHandThumb1
									{
										OFFSET 5.35114 -0.85590 3.97906
										CHANNELS 3 Zrotation Xrotation Yrotation
										JOINT LeftHandThumb2
										{
											OFFSET 4.52789 0.00000 0.00000
											CHANNELS 3 Zrotation Xrotation Yrotation
											JOINT LeftHandThumb3
											{
												OFFSET 2.46977 0.00000 0.00000
												CHANNELS 3 Zrotation Xrotation Yrotation
												End site
												{
													OFFSET 0.00000 0.00000 0.00000
												}
											}
										}
									}
									JOINT LeftHandIndex1
									{
										OFFSET 14.26970 0.00000 2.88139
										CHANNELS 3 Zrotation Xrotation Yrotation
										JOINT LeftHandIndex2
										{
											OFFSET 5.48836 0.00000 0.00000
											CHANNELS 3 Zrotation Xrotation Yrotation
											JOINT LeftHandIndex3
											{
												OFFSET 3.01859 0.00000 0.00000
												CHANNELS 3 Zrotation Xrotation Yrotation
												End site
												{
													OFFSET 0.00000 0.00000 0.00000
												}
											}
										}
									}
									JOINT LeftHandMiddle1
									{
										OFFSET 14.26970 0.00000 -0.09147
										CHANNELS 3 Zrotation Xrotation Yrotation
										JOINT LeftHandMiddle2
										{
											OFFSET 6.17440 0.00000 0.00000
											CHANNELS 3 Zrotation Xrotation Yrotation
											JOINT LeftHandMiddle3
											{
												OFFSET 3.56744 0.00000 0.00000
												CHANNELS 3 Zrotation Xrotation Yrotation
												End site
												{
													OFFSET 0.00000 0.00000 0.00000
												}
											}
										}
									}
									JOINT LeftHandRing1
									{
										OFFSET 12.69180 0.00000 -3.06433
										CHANNELS 3 Zrotation Xrotation Yrotation
										JOINT LeftHandRing2
										{
											OFFSET 5.62556 0.00000 0.00000
											CHANNELS 3 Zrotation Xrotation Yrotation
											JOINT LeftHandRing3
											{
												OFFSET 3.56744 0.00000 0.00000
												CHANNELS 3 Zrotation Xrotation Yrotation
												End site
												{
													OFFSET 0.00000 0.00000 0.00000
												}
											}
										}
									}
									JOINT LeftHandPinky1
									{
										OFFSET 11.11390 0.00000 -6.03719
										CHANNELS 3 Zrotation Xrotation Yrotation
										JOINT LeftHandPinky2
										{
											OFFSET 4.52789 0.00000 0.00000
											CHANNELS 3 Zrotation Xrotation Yrotation
											JOINT LeftHandPinky3
											{
												OFFSET 2.46976 0.00000 0.00000
												CHANNELS 3 Zrotation Xrotation Yrotation
												End site
												{
													OFFSET 0.00000 0.00000 0.00000
												}
											}
										}
									}
								}
							}
						}
					}
					JOINT pCube4
					{
						OFFSET 0.00000 10.91090 1.10792
						CHANNELS 3 Zrotation Xrotation Yrotation
						End site
						{
							OFFSET 0.00000 0.00000 0.00000
						}
					}
				}
			}
		}
	}
	JOINT RightUpLeg
	{
		OFFSET -9.98441 0.00000 0.00000
		CHANNELS 3 Zrotation Xrotation Yrotation
		JOINT RightLeg
		{
			OFFSET 0.00000 -42.11790 0.00000
			CHANNELS 3 Zrotation Xrotation Yrotation
			JOINT RightFoot
			{
				OFFSET 0.00000 -45.00020 -0.00001
				CHANNELS 3 Zrotation Xrotation Yrotation
				JOINT RightForeFoot
				{
					OFFSET 0.00000 -3.74820 0.00000
					CHANNELS 3 Zrotation Xrotation Yrotation
					JOINT RightToeBase
					{
						OFFSET 0.00000 0.06325 14.43120
						CHANNELS 3 Zrotation Xrotation Yrotation
						End site
						{
							OFFSET 0.00000 0.00000 0.00000
						}
					}
				}
			}
		}
	}
	JOINT LeftUpLeg
	{
		OFFSET 9.98441 0.00000 0.00000
		CHANNELS 3 Zrotation Xrotation Yrotation
		JOINT LeftLeg
		{
			OFFSET 0.00000 -42.11800 0.00000
			CHANNELS 3 Zrotation Xrotation Yrotation
			JOINT LeftFoot
			{
				OFFSET 0.00000 -45.00070 0.00000
				CHANNELS 3 Zrotation Xrotation Yrotation
				JOINT LeftForeFoot
				{
					OFFSET 0.00000 -3.74824 0.00000
					CHANNELS 3 Zrotation Xrotation Yrotation
					JOINT LeftToeBase
					{
						OFFSET 0.00000 0.06325 14.43110
						CHANNELS 3 Zrotation Xrotation Yrotation
						End site
						{
							OFFSET 0.00000 0.00000 0.00000
						}
					}
				}
			}
		}
	}
}
MOTION
Frames: 4
Frame Time: 0.050000
-0.029139875071382795 0.02382566820158664 0.009377077458480862 -0.026257209875154036 0.006115094305057826 -0.009658577448212255 -2.6478697422336324 1.1849850580805226 -0.7433780151469545 -0.9552839101469157 3.626801930868777 0.37387552373611826 -1.2296828686787267 -2.0146958841044587 -0.9472602005143006 -0.500130400358516 0.15359650758502585 -0.7901853324399679 -0.631591632683787 13.600362108420597 1.342456754529846 -0.27973053810619364 0.6602655642112487 1.0033634145081893 -0.7263559530282507 -13.801598621150601 0.1820284755623491 -7.09655547794731 2.374476015396672 -12.713600334596332 63.99080306520166 5.366368699184386 24.54984854625374 17.549069481726406 -4.3343581957679005 75.12290219819116 17.54791121386032 -0.36710877766921546 -3.5152340300003764 4.54131217786787 -0.11820172207378277 -1.6033536089445137 -0.034263322009409916 0.04203110844755117 -56.28109441162467 -0.011950840968240898 0.02075184170863678 -56.27209419603523 -38.75402550332916 0.012809241181116175 -0.017227327454184514 0.04472997927054337 0.04351195167153913 0.026319202320544386 0.008686672724479086 0.035226870367738625 0.011764838864119713 -36.72262277806334 -0.019877506348904967 0.012924734828342294 0.008013161112163993 0.013329514879062749 0.047709507186025596 -0.017907299607904294 0.010956731666044068 0.020450589860307327 -19.808029937919002 -0.032637898898447544 0.04841276664583113 -0.04157103559076207 -0.002767840484921468 -0.03501115793148804 -0.04534961965672587 -0.03267880330706944 0.014549378345498961 24.09454096899493 0.016623114827709704 -0.034713305120796886 28.85624754435005 0.01577054492291192 -0.04322713233517316 28.850848647394255 0.011596629320995701 -0.026584213330660304 8.88389084004288 1.9576446771174725 11.992083753849421 -63.69564151776592 13.887470835686615 -24.19371783786018 -38.06247366356797 3.373952604040519 -77.83832001951129 -13.020733216583908 -0.1970827672746911 1.144640281376394 -0.4920286308428587 0.05955602081721121 -8.153787247000436 0.008245161676481013 0.017865706293114732 44.521265548386594 0.005702267977443261 -0.019137070404042472 44.588928318820656 12.428344596235195 -0.00542393774691348 0.013815893407117554 0.007200588750124546 0.008827938528435825 -0.024031837241425196 -0.004249594376828087 0.015353061588738058 0.004963773542406989 11.09597965556452 0.029846874200444004 -0.044514141663378616 -0.030421523999801418 0.02293653831762283 0.003090807566694407 -0.029725728531377477 0.0494427241598978 -0.01610361750015466 4.767727101252248 0.03614825396951359 0.010849062304727444 0.049650331381221595 -0.02309229775794182 0.048892197841652586 -0.0016442765322303428 -0.04623508950580959 0.035358136927965335 -5.602230169081253 -0.034409690437135855 -0.04701708348294487 -6.69632041343471 0.0016934725221538893 -0.014356480224905776 -6.68462586292008 0.022375995875031356 0.013761854656878581 -0.01776371506877093 0.030869887157388202 -0.04649898653323272 8.036306508576526 3.5023805222926243 -19.210255921806827 -0.029386557268906783 10.380286156746815 0.04109340491950693 -5.6673497556810695 -15.659156748724389 3.1636129478061914 -0.0010473435868800344 0.017848136675220675 -0.045103134259161716 0.04094011818730276 4.736463239014227 0.008235760606664519 12.443725751236405 -8.246760531528558 6.866652485556207 0.020840419420009963 46.38796956350615 0.021965978283422238 -4.303827950417778 -14.770717935255037 -3.82165859409961 0.04164525700285583 -0.03889738135106621 0.043063329289617217 -0.04298071544731722 -10.71200379884407 0.04416204232227209 
0.006561061706983454 0.0187965000494434 -0.04913904744735874 0.010308114043292994 0.0003318970154436906 -0.01406167420195812 -2.6699398066206674 1.2968684419171783 -0.712603815911564 -1.0071625333722698 3.7116246001548685 0.35168917292425406 -1.257637461636443 -1.9865672062534365 -1.0711271732609646 -0.4638161801219372 0.20704188175882726 -0.7951295334059972 -0.6475512001953238 13.445606375917302 1.3513140065069156 -0.32218270091143264 0.5665493682106882 0.9744565474701445 -0.7092161545348207 -14.021190622525198 0.16038532896660015 -6.819324960092255 2.320624997701152 -12.751630491234273 63.61190340206112 6.321464739064464 23.274915054937086 18.982933899820328 -5.359009942651482 72.64104501419301 17.793525821457845 -0.37878024646650676 -3.4935284176189523 4.52830353477562 -0.09990742278107409 -1.6165802875448152 0.021543477384115942 -0.03933011412007792 -56.219683984279314 0.01713672051354084 -0.01252847914245 -56.240011478091276 -38.76286678599826 0.03710201124214567 0.01379741771843042 0.04016187738723415 -0.011764024817434124 -0.03329631188483069 0.02135520838963264 -0.014401067740014768 -0.04676610889774063 -36.67896010592475 -0.045767198851168055 -0.004186216304490838 -0.018560086269611968 -0.019375878658134036 0.01873583412030228 0.014974991997034729 -0.035904261603405964 0.041795865002244435 -19.761711860659595 0.012384353983475005 0.02177542133184334 -0.03608701422234976 -0.034451240403014005 0.01862017127994072 0.005364129194267055 -0.042206608814087915 0.03379900350686224 24.01961238565435 -0.00454310472897012 -0.020740794403001694 28.854884525746524 0.004155918130560898 -0.04060479732000789 28.817866687289346 -0.03988815588324352 0.028230073358755544 8.498678708448764 1.8553332015513078 11.905533374989584 -64.11676294530733 14.340928040581803 -22.693563159551612 -42.813538373817906 4.620975106459161 -76.56809275590163 -13.010623244684616 0.43308056754554486 0.730393133036964 -0.4558070484188275 0.02742244964070771 -8.125069826099562 -0.0029263787168339775 0.04982866707681126 44.54579180553367 0.011191643541959919 -0.016887696209309366 44.55878121068972 12.420177928635015 -0.02380009278997814 0.00905403409564816 0.047309282877161046 0.0010275107798609596 -0.02611654670595364 0.0032561117270076727 0.035945217244586346 0.0009670450073663856 11.083969915950645 -0.02669121562626417 -0.03226530229241748 -0.034134249667276115 0.027348705150023873 -0.0026857698790100533 -0.04266584319460151 0.005535646520716443 -0.009508460366188836 4.810320922706054 0.03114977031106714 0.04094515965199948 0.010036466588924611 -0.02685858149791434 0.010165971955661048 0.02203064668634067 -0.039262554146041136 -0.012602263616914152 -5.569623048083317 -0.02509876960116084 -0.01894951095555962 -6.677537193897693 -0.0013230898294917211 0.016598946665275664 -6.678138987777245 0.03290416800436271 0.04656266723515218 0.0010462175906446256 -0.038830472728114615 -0.04103956869887518 8.036598285226486 3.4567953240739686 -19.24353075712369 -0.0423823258189324 10.386294215950077 0.004651171207211712 -5.596072758152591 -15.620090747939638 3.2158226964302736 -0.011181701974878966 -0.014751855347836035 -0.01474990277010823 0.0015824607304969478 4.697406627963536 0.002668654833564796 12.445943455427386 -8.285410626559207 6.877996236160041 -0.0075512331043022345 46.37896292122084 0.017438508806544125 -4.351849173579828 -14.705541371230577 -3.8521114956319735 -0.03953482946576333 -0.01792688111937636 0.03093836975039862 -0.008253207664321683 -10.720965846212481 0.030489381570479014 
0.0238354550046262 0.014368768303104568 -0.015337727902352896 -0.00012787182466495728 0.028168741334944236 -0.012274180890151967 -2.7475753614581424 1.3174545922479375 -0.7413054262968763 -1.058022354456852 3.7242506440209824 0.43333710747376697 -1.2433537025882107 -1.9076340206252214 -1.0926401867469762 -0.35080694577919413 0.3093030100187067 -0.8330839953351669 -0.6145314968696479 13.173955888011632 1.206699363013586 -0.3097875620352264 0.34718475916833086 0.5714091700568789 -0.7111300515514137 -14.29128220349527 0.15386408266976148 -6.6109927567282405 2.19395632183714 -12.851020121550748 63.46723940742946 7.14027919593057 21.69632031235384 21.68978132100547 -6.10702033256227 69.83289449852143 18.199575830174346 -0.2910205225098443 -3.5143476954713555 4.495859723456173 -0.12365574101580985 -1.6014700484879076 -0.03314713335182715 -0.039842012035744244 -56.20445936921843 0.03834986369384119 0.015936441703162267 -56.237337299057316 -38.8023449143439 -0.02634070256860152 -0.03033252642550242 -0.04153669010285935 -0.0013238222283131374 0.002436498964361638 0.006312239325070067 -0.04967052316482597 0.0256285330315196 -36.64839625115853 0.04996118870011036 0.0025938692714059784 0.043029033176838115 -0.038851046085916344 0.04874168257453428 -0.0015186063282444508 0.007996392207539484 -4.958425274958846e-05 -19.793581591237768 -0.030389018638449394 0.035147959713750676 -0.034580087875691626 0.04354960396214549 -0.00045233761780868705 0.04990749771321827 -0.024551363895167985 -0.013772653278827523 24.047758610379777 0.008781121103422787 -0.03987784161691963 28.8983081105301 0.024514411456536996 0.03368888722416486 28.896132561096376 0.0437498016542183 -0.003328891567683842 8.022896795555363 1.7654144596071542 11.923325381816273 -64.66147061105177 14.782503537216368 -20.288398623959193 -46.189411670333854 4.877381626152278 -74.41399568608587 -12.916169705818723 1.1879930624098909 0.31589520899924756 -0.44060939466787363 0.06313922636295127 -8.140552505238025 -0.04120073624696017 0.004790203546973926 44.52776775379527 0.017102935021185737 0.032219153484277986 44.56182346298896 12.41126796615394 -0.019349302967057665 0.016152997157766684 -0.03584570436795048 0.046215606067329995 0.01962238127171548 -0.031244559791245023 0.04219886624461878 0.030375467006250014 11.096494694338435 -0.04478501619343182 -0.03617397785580028 -0.030356462877029075 -0.008756447218583282 -0.010485953255431434 -0.04957778395124712 0.0043498203988386035 0.026448500212928362 4.742350420645354 -0.00031406207411219017 0.011065688506787349 0.0392248849819159 -0.015324412425214484 0.026478865011503636 0.009070657533994293 -0.025999248282572128 -0.026399138294819657 -5.586929340817643 -0.032194325827365644 0.018191126938867735 -6.7230095027774475 -0.035324105734857336 0.036842218656714595 -6.716416624356465 0.02339779263925896 -0.013402069586912198 -0.04084420670882706 -0.03207604824667801 0.01265713525446356 8.047691411234323 3.5205583200106747 -19.21480644552331 -0.0476148235246889 10.373839380072333 0.053405841941916485 -5.642517915458916 -15.696705994701707 3.2297886556610944 -0.04381117923548241 0.034132249000745116 0.01617724818648993 -0.034413934484477424 4.723682708185682 0.03815032240256426 12.424546305012402 -8.241431964755524 6.859906375069681 -0.007910457260312519 46.38494797877981 -0.0200708810204963 -4.281503058614012 -14.702624117258727 -3.8241592147601486 0.016143291496787653 0.04037220182757474 -0.005883882688975493 0.03600826875366315 -10.700146804888961 0.008516286563709926 
-0.026118036200982443 -0.004339136040796553 0.034700500634514554 -0.00655859603462202 -0.03549643365554352 0.0035619130629447856 -2.7994886876556415 1.4246921808228057 -0.7120721489028177 -1.044905066869391 3.7457364250279364 0.372947160765894 -1.263891383483792 -1.8435326840019997 -0.9887217093753763 -0.235948084240343 0.3370902497860811 -0.8385605497485149 -0.4976869089218569 13.017827811754836 0.9507797337117677 -0.3179569886155516 0.15433663595778413 -0.2753096779714074 -0.6678597094600006 -14.580994612393841 -0.009831267326100505 -6.4897252839881885 2.1938335638542714 -12.94766736353084 63.45017683588363 7.67508817996467 20.333414355189355 23.951910155986738 -6.852920806455219 67.43108423780023 18.31594653358608 -0.30281973996780565 -3.5219395721155107 4.564529321221434 -0.16635166593908277 -1.559053379749499 0.015497740099277698 0.021407556248246168 -56.27633168369303 -0.009584978925889867 0.040094227533092504 -56.266896779795765 -38.78021464602544 -0.033494208642026464 -0.000477386510060696 0.04919341222294592 -0.01278873704900414 0.02219248880233313 0.035214875327123474 -0.03327653938354454 -0.025042526061642256 -36.696060669932805 0.018656766451113003 -0.03828971960314388 0.006114279795939809 -0.015191403319998352 0.03325351924642878 0.022797565062719783 0.012452242346177759 0.01399301329418871 -19.803283187603437 0.016832606041672943 0.024118666180582646 -0.042902014544169635 -0.01699205066496333 0.007077017945709941 0.04056870303996105 0.0449433099642101 -0.013067646369189714 24.032838353721907 0.007130387922975783 -0.04730303424924733 28.86468709061822 0.018616788086576828 0.012270701027066368 28.847704892725652 -0.0014847108979876885 -0.026661304798052843 7.359972301411437 1.6410897693219693 11.983845823553786 -65.11187365893954 15.663884285624258 -17.411235031838032 -45.52397482486227 3.7538772915499776 -70.62813890761407 -12.54636102092862 1.8089616400518673 -0.06375812081192997 -0.49127202038961215 0.07373006612060275 -8.104405428017234 0.02010206127312224 -0.00885870494788579 44.57592251383442 -0.01668497290558705 0.008274010038639543 44.52822187479877 12.41786605116986 0.029437184328697956 -0.015233164682394544 -0.006885014014252472 -0.02764420457730723 -0.03289349225269358 0.02128164810631029 0.0016322907540217931 0.04696654796493977 11.094721787199223 0.04788728723275739 -0.01646273481198883 0.03198696920801709 -0.008629508977975691 0.03791915810640498 -0.015386733306135998 -0.015089650610747516 0.049575401355502154 4.757160157834318 0.027915615618087482 0.008300676678064918 -0.031015393464297596 0.030417526834996683 0.01441498807692719 0.03578204071732143 -0.0387136706133749 0.02253258189432164 -5.605340178664604 0.04300346727931627 -0.024629909761210007 -6.724724089839485 -0.033555443954560484 -0.00846147008852637 -6.719207199728176 0.0033974658766953037 0.04872736796003101 0.023947949054388948 0.03102932299821493 0.009412005565056452 8.076030878423524 3.5042416330345834 -19.23657345108344 -0.019763277085649046 10.354033126409702 0.052196573309340175 -5.622207358325298 -15.682363077220822 3.1656891961576097 0.018654085380295282 0.048212509178514294 -0.015147959300666617 0.005374011601321442 4.700082265399416 0.01397835724170698 12.413996823396701 -8.22736629796668 6.847536997746674 0.014246711040899621 46.42464619415894 -0.03147033981975932 -4.316452802565257 -14.765242544875369 -3.865420783583349 0.01398768199287557 -0.031953192242100616 0.018776903659351245 0.03833836738772817 -10.712254528711448 -0.010002601431717115 
